<svg xmlns="http://www.w3.org/2000/svg" viewBox="0 13.399999618530273 170.14999389648438 35" data-asc="0.968" width="170.14999389648438" height="35"><defs/><g fill="#000000"><g transform="translate(0, 0)"><path d="M4.55 28.50L22.55 28.50L22.55 32.75L4.55 32.75L4.55 28.50M5 44.05L25.40 44.05L25.40 48.40L0 48.40L0 13.40L24.70 13.40L24.70 17.75L5 17.75L5 44.05ZM40.45 48.40L40.45 17.75L28.45 17.75L28.45 13.40L57.40 13.40L57.40 17.75L45.40 17.75L45.40 48.40L40.45 48.40ZM87.95 13.40L92.95 13.40L92.95 48.40L87.95 48.40L87.95 13.40M67.85 48.40L62.85 48.40L62.85 13.40L67.85 13.40L67.85 48.40M88.40 32.80L67.35 32.80L67.35 28.45L88.40 28.45L88.40 32.80ZM98.15 48.40L114 13.40L118.95 13.40L134.85 48.40L129.60 48.40L115.45 16.20L117.45 16.20L103.30 48.40L98.15 48.40M104.90 39.65L106.25 35.65L125.95 35.65L127.40 39.65L104.90 39.65ZM140.05 48.40L140.05 13.40L144.15 13.40L167.30 42.15L165.15 42.15L165.15 13.40L170.15 13.40L170.15 48.40L166.05 48.40L142.90 19.65L145.05 19.65L145.05 48.40L140.05 48.40Z"/></g></g></svg>